<?xml version="1.0" encoding="UTF-8" standalone="no"?>
<!DOCTYPE svg PUBLIC "-//W3C//DTD SVG 1.1//EN"
 "http://www.w3.org/Graphics/SVG/1.1/DTD/svg11.dtd">
<!-- Created with Inkscape (http://www.inkscape.org/) -->
<svg xmlns="http://www.w3.org/2000/svg" version="1.0" width="400" height="400">
  <defs id="defs4" />
  <g transform="translate(-150,-110)">
    <path
       d="M 157,184 L 173,168 C 182,159 197,162 197,162 L 242,168 L 265,146 C 277,134 288,152 283,158 L 271,172 L 320,181 L 336,162 C 354,141 367,159 359,171 L 348,184 L 421,194 C 484,133 509,108 526,123 C 543,138 513,168 456,227 L 467,302 L 482,289 C 491,282 507,294 490,309 L 469,329 L 478,378 L 491,368 C 503,359 517,371 501,388 L 480,409 C 480,409 487,452 487,452 C 492,473 480,480 480,480 L 466,493 L 411,339 C 407,326 396,311 376,313 C 366,314 341,331 337,335 L 279,392 C 277,393 288,465 288,465 C 288,468 269,492 269,492 L 232,426 L 213,434 L 224,417 L 157,379 L 182,361 C 194,364 257,371 258,370 C 258,370 309,319 312,316 C 329,298 335,292 338,283 C 340,274 336,261 309,245 C 272,222 157,184 157,184 z"
       id="path3166"
       style="fill:#008000;stroke:#002000;" />
  </g>
</svg>
